<svg xmlns="http://www.w3.org/2000/svg" xmlns:xlink="http://www.w3.org/1999/xlink" width="30" height="30" viewBox="0 0 30 30"><defs><style>.a{fill:#173042;}.b{fill:url(#a);}</style><linearGradient id="a" x1="-0.25" y1="0.5" x2="1.25" y2="0.5" gradientUnits="objectBoundingBox"><stop offset="0" stop-color="#adce0f"/><stop offset="0.004" stop-color="#adce0f"/><stop offset="0.994" stop-color="#339f30"/><stop offset="1" stop-color="#339f30"/></linearGradient></defs><g transform="translate(-376 -1655)"><g transform="translate(93.356 1425.125)"><path class="a" d="M310.953,240.928a1.882,1.882,0,0,0-2.081,1.865l.015,4.492a3.914,3.914,0,0,1-1.156,2.626l-1.86,1.85a.972.972,0,0,1-1.369,0,.958.958,0,0,1,0-1.361l1.916-1.9a1.794,1.794,0,0,0,.191-2.388,1.751,1.751,0,0,0-2.586-.133l-3.771,3.748a4.486,4.486,0,0,0-1.326,3.182v2.271a.375.375,0,0,0,.378.375l7.746-.01a.377.377,0,0,0,.287-.133l4.237-4.984a4.485,4.485,0,0,0,1.069-2.9V242.9A1.952,1.952,0,0,0,310.953,240.928Zm-19.687,5.049a1.751,1.751,0,0,0-2.586.133,1.794,1.794,0,0,0,.191,2.388l1.916,1.9a.958.958,0,0,1,0,1.361.971.971,0,0,1-1.368,0l-1.861-1.85a3.914,3.914,0,0,1-1.156-2.626l.015-4.492a1.882,1.882,0,0,0-2.081-1.865,1.952,1.952,0,0,0-1.692,1.972v4.621a4.485,4.485,0,0,0,1.069,2.9l4.237,4.984a.377.377,0,0,0,.287.133l7.746.01a.375.375,0,0,0,.378-.375v-2.271a4.486,4.486,0,0,0-1.326-3.182Z"/><path class="a" d="M306.848,257.625H299.1a.376.376,0,0,0-.377.375v1.5a.376.376,0,0,0,.377.375h7.747a.376.376,0,0,0,.377-.375V258A.376.376,0,0,0,306.848,257.625Zm-9.2-20.678a3.536,3.536,0,1,0-3.557-3.536A3.546,3.546,0,0,0,297.645,236.947Zm-5.16,6.8H302.8a.849.849,0,0,0,.818-.876v-.833a2.792,2.792,0,0,0-2.69-2.882h-6.575a2.792,2.792,0,0,0-2.69,2.882v.833A.849.849,0,0,0,292.485,243.75Zm3.7,13.875h-7.747a.376.376,0,0,0-.377.375v1.5a.376.376,0,0,0,.377.375h7.747a.376.376,0,0,0,.377-.375V258A.376.376,0,0,0,296.188,257.625Z"/></g><path class="b" d="M392.457,1685a.377.377,0,0,1-.377-.375v-1.5a.377.377,0,0,1,.377-.375H400.2a.377.377,0,0,1,.377.375v1.5a.377.377,0,0,1-.377.375Zm-10.661,0a.377.377,0,0,1-.377-.375v-1.5a.377.377,0,0,1,.377-.375h7.747a.376.376,0,0,1,.377.375v1.5a.376.376,0,0,1-.377.375Zm10.862-4.321a.376.376,0,0,1-.376-.374v-2.272a4.487,4.487,0,0,1,1.326-3.182l3.771-3.749a1.751,1.751,0,0,1,2.587.133,1.794,1.794,0,0,1-.191,2.388l-1.916,1.9a.958.958,0,0,0,0,1.361.973.973,0,0,0,1.369,0l1.86-1.849a3.913,3.913,0,0,0,1.156-2.627l-.015-4.492a1.883,1.883,0,0,1,2.081-1.866,1.953,1.953,0,0,1,1.692,1.972v4.622a4.487,4.487,0,0,1-1.069,2.905l-4.237,4.984a.379.379,0,0,1-.288.133l-7.746.01Zm-3.317,0-7.746-.01a.38.38,0,0,1-.288-.133l-4.237-4.984a4.486,4.486,0,0,1-1.068-2.905v-4.622a1.952,1.952,0,0,1,1.691-1.972,1.882,1.882,0,0,1,2.081,1.866l-.015,4.492a3.918,3.918,0,0,0,1.156,2.627l1.86,1.849a.972.972,0,0,0,1.368,0,.958.958,0,0,0,0-1.361l-1.916-1.9a1.794,1.794,0,0,1-.191-2.388,1.751,1.751,0,0,1,2.587-.133l3.771,3.749a4.487,4.487,0,0,1,1.326,3.182v2.272a.376.376,0,0,1-.376.374Zm-3.5-11.8a.849.849,0,0,1-.818-.876v-.833a2.793,2.793,0,0,1,2.691-2.883h6.575a2.792,2.792,0,0,1,2.69,2.883V1668a.849.849,0,0,1-.818.876Zm1.6-10.339a3.557,3.557,0,1,1,3.557,3.536A3.546,3.546,0,0,1,387.443,1658.535Z"/></g></svg>