<svg xmlns="http://www.w3.org/2000/svg" width="192" height="192" viewBox="0 0 61.554 54"><g transform="translate(-77 -42)"><g transform="translate(77 39)"><g transform="translate(-475.501 -270.193)"><path d="M525.839,301.942l-17.932-15.79a2.835,2.835,0,0,0-3.757,0l-17.932,15.79a2.941,2.941,0,0,0-.99,2.206V316.5c.077-.055.161-.1.237-.159a6.925,6.925,0,0,1,4.366-1.522,7.478,7.478,0,0,1,5.133,2.06,4.58,4.58,0,0,0,3.145,1.251,4.522,4.522,0,0,0,1.466-.258v-6.306a2.893,2.893,0,0,1,2.869-2.917h7.172a2.893,2.893,0,0,1,2.87,2.917v5.622a4.451,4.451,0,0,0,3.975-.846,6.925,6.925,0,0,1,4.366-1.522,7.478,7.478,0,0,1,5.133,2.06,4.662,4.662,0,0,0,.873.629V304.148A2.943,2.943,0,0,0,525.839,301.942Z" fill="#173042"></path><path d="M479.138,299.058a2.892,2.892,0,0,0,3.988.145L504,280.823a3.063,3.063,0,0,1,4.057,0l20.874,18.38a2.894,2.894,0,0,0,3.989-.145,3.014,3.014,0,0,0-.153-4.357l-22.679-19.97a6.124,6.124,0,0,0-8.116,0L479.292,294.7a3.011,3.011,0,0,0-.153,4.357Zm56.911,22.889a1.915,1.915,0,0,0-2.728-.247,6.506,6.506,0,0,1-9.486-1.133,3.494,3.494,0,0,0-2.649-1.439,3.438,3.438,0,0,0-2.718,1.147,6.494,6.494,0,0,1-9.726,0,3.441,3.441,0,0,0-5.368.292,6.506,6.506,0,0,1-10.534,0,3.494,3.494,0,0,0-2.649-1.439,3.427,3.427,0,0,0-2.718,1.147,6.657,6.657,0,0,1-8.858.818,1.918,1.918,0,0,0-2.715.369,1.989,1.989,0,0,0,.363,2.761,10.25,10.25,0,0,0,6.348,2.183,10.393,10.393,0,0,0,7.4-3.125,10.337,10.337,0,0,0,16.2,0,10.323,10.323,0,0,0,14.8,0,10.333,10.333,0,0,0,14.8,1.442A1.992,1.992,0,0,0,536.049,321.947Z" fill="#173042"></path></g></g><path d="M122.5,92.087a10.323,10.323,0,0,1-14.8,0,10.338,10.338,0,0,1-16.2,0,10.393,10.393,0,0,1-7.4,3.125,10.251,10.251,0,0,1-6.348-2.182,1.99,1.99,0,0,1-.363-2.761,1.918,1.918,0,0,1,2.715-.368,6.658,6.658,0,0,0,8.859-.818,3.427,3.427,0,0,1,2.718-1.147,3.493,3.493,0,0,1,2.649,1.439,6.506,6.506,0,0,0,10.534,0,3.44,3.44,0,0,1,5.368-.292,6.493,6.493,0,0,0,9.726,0,3.438,3.438,0,0,1,2.719-1.147,3.491,3.491,0,0,1,2.648,1.439,6.507,6.507,0,0,0,9.487,1.133,1.914,1.914,0,0,1,2.727.248,1.992,1.992,0,0,1-.243,2.775,10.335,10.335,0,0,1-14.8-1.442Zm-26.041-6.4a7.477,7.477,0,0,0-5.133-2.059,6.929,6.929,0,0,0-4.366,1.522c-.076.06-.159.1-.237.159V72.955a2.941,2.941,0,0,1,.99-2.206l17.932-15.79a2.835,2.835,0,0,1,3.757,0l17.933,15.79a2.942,2.942,0,0,1,.992,2.206V86.316a4.663,4.663,0,0,1-.872-.629,7.479,7.479,0,0,0-5.134-2.059,6.927,6.927,0,0,0-4.365,1.522,4.54,4.54,0,0,1-2.855,1,4.591,4.591,0,0,1-1.12-.154V80.374a2.893,2.893,0,0,0-2.87-2.917h-7.173a2.893,2.893,0,0,0-2.868,2.917v6.307a4.488,4.488,0,0,1-4.611-.994ZM130.431,68.01,109.557,49.63a3.063,3.063,0,0,0-4.057,0L84.626,68.01a2.893,2.893,0,0,1-3.988-.145,3.01,3.01,0,0,1,.154-4.357l22.679-19.971a6.124,6.124,0,0,1,8.116,0l22.679,19.971a3.013,3.013,0,0,1,.154,4.357,2.895,2.895,0,0,1-3.99.145Z" fill="#fff"></path></g></svg>