<svg xmlns="http://www.w3.org/2000/svg" xmlns:xlink="http://www.w3.org/1999/xlink" width="18.001" height="30.001" viewBox="0 0 18.001 30.001"><defs><style>.a{fill:url(#a);}</style><linearGradient id="a" x1="-0.25" y1="0.5" x2="1.25" y2="0.5" gradientUnits="objectBoundingBox"><stop offset="0" stop-color="#adce0f"></stop><stop offset="0.004" stop-color="#adce0f"></stop><stop offset="0.994" stop-color="#339f30"></stop><stop offset="1" stop-color="#339f30"></stop></linearGradient></defs><path class="a" d="M449.294,8204a1.584,1.584,0,0,1,0-3.167H458.7a1.584,1.584,0,0,1,0,3.167Zm3.679-7.143c-.325-.291-7.974-7.182-7.974-13.708a9,9,0,1,1,18,0c0,5.72-7.107,12.86-7.919,13.657a1.539,1.539,0,0,1-2.108.052Zm-4.859-13.708c0,3.578,3.578,7.986,5.841,10.294,2.281-2.483,5.93-7.13,5.93-10.294a5.886,5.886,0,1,0-11.771,0Zm5.285,1.47a1.682,1.682,0,0,1-.5-.358,1.558,1.558,0,0,1-.457-1.12,1.592,1.592,0,0,1,.457-1.12,1.612,1.612,0,0,1,.5-.338,1.6,1.6,0,0,1,1.2,0,1.637,1.637,0,0,1,.5.338,1.6,1.6,0,0,1,.457,1.12,1.566,1.566,0,0,1-.457,1.12,1.547,1.547,0,0,1-1.1.463A1.933,1.933,0,0,1,453.4,8184.62Z" transform="translate(-444.999 -8174)"></path></svg>